<svg xmlns="http://www.w3.org/2000/svg" xmlns:xlink="http://www.w3.org/1999/xlink" version="1.1" id="Layer_1" x="0px" y="0px" viewBox="0 0 199.2 170.5" style="enable-background:new 0 0 199.2 170.5;" xml:space="preserve">
<g>
	<path d="M20.3,59c1.2,0,2.1-1,2.1-2.1c0-0.1,0-0.2,0-0.3l21.8-11.4l36.3,2.6c0.3,0.8,1.1,1.4,2,1.4c1.2,0,2.1-1,2.1-2.1   c0-1-0.8-1.9-1.8-2l-1.9-7.8l40.9-5c0.3,0.8,1.1,1.3,2,1.3c1.2,0,2.1-1,2.1-2.1c0-1.2-1-2.1-2.1-2.1c-1,0-1.9,0.8-2,1.7l-40.2,5   l17.5-23.4l0.3-0.1l41,9.4l14.2,25.4l0,0c0,0,0,0,0.1,0.1c0,0.1,0.1,0.1,0.1,0.1l0,0l20.7,9.7c0.1,1.1,1,1.9,2.1,1.9   c1.2,0,2.1-1,2.1-2.1c0-1.2-1-2.1-2.1-2.1c-0.2,0-0.4,0-0.6,0.1l-8.4-16.9c0.4-0.4,0.7-1,0.7-1.6c0-1.2-1-2.1-2.1-2.1   c-0.4,0-0.7,0.1-1,0.3l-19.5-19.6l0,0l0,0l-0.1-0.1L111.6,0l0,0c-0.1,0-0.2,0-0.3,0l0,0l-38,3.9c-0.3-0.8-1.1-1.3-2-1.3   c-1.2,0-2.1,1-2.1,2.1c0,1.2,1,2.1,2.1,2.1c0.7,0,1.4-0.4,1.7-1l23.6,6l-40.8,8.7l-4.9-2.7c-0.1-1.1-1-2-2.1-2   c-1.2,0-2.1,1-2.1,2.1c0,0.2,0,0.4,0.1,0.6L29.3,34.6l-0.1,0.1c0,0,0,0-0.1,0.1l0,0l-8.9,19.9l0,0c-1.2,0-2.1,1-2.1,2.1   C18.2,58.1,19.2,59,20.3,59z M81.6,45.2c-0.6,0.3-1,0.8-1.2,1.4l-32.2-2.3l31.5-6.9L81.6,45.2z M167.3,38.7c0.1,0,0.2,0,0.3,0   l8.3,16.9c-0.1,0.1-0.2,0.2-0.2,0.4l-19.6-9.1l10-8.5C166.4,38.6,166.8,38.7,167.3,38.7z M165.3,37.5l-10.2,8.6L142.2,23l23,13.2   c0,0.2-0.1,0.3-0.1,0.5C165.1,37,165.2,37.2,165.3,37.5z M163.7,33.9l-22.1-12.6l4.7-4.8L163.7,33.9z M145.2,15.8l-4.7,4.8   L116.2,3.4L145.2,15.8z M111.3,1.4l26.5,18.8l-37.3-8.6L111.3,1.4z M74.7,5l34.9-3.6l-10.5,9.8L74.7,5z M97.2,12.9L80,35.9   L57.2,21.5L97.2,12.9z M55.9,22.1l22.7,14.4l-33.5,7.3L55.9,22.1z M47.5,19.5c0.4,0.3,0.8,0.5,1.4,0.5c0.7,0,1.4-0.4,1.8-1l3.9,2.2   l-21,11.1L47.5,19.5z M54.3,22.6L43.8,43.7l-13-8.6L54.3,22.6z M30,36l12.9,8.6L21.8,55.5c-0.1-0.1-0.2-0.2-0.4-0.3L30,36z"/>
	<path d="M179.1,105.7c-1.2,0-2.1,0.9-2.1,2.1c0,0.1,0,0.1,0,0.2l-22.1,8.8c-0.1,0-0.1,0.1-0.2,0.1c0,0,0,0,0,0.1l-0.1,0.1   l-14.7,31.8l-34.4,2.8l-29-15.2v-0.1c0-1.2-0.9-2.1-2.1-2.2c-1,0-1.8,0.6-2.1,1.6l-25.5,5.8l-5.6-27.1l0,0v-0.1c0,0,0,0,0-0.1   c0,0,0,0,0-0.1l0,0l0,0c0,0,0,0-0.1,0c0,0,0,0-0.1,0c0,0,0,0-0.1,0l0,0l-19-6c0-1.2-0.9-2.1-2.1-2.1c-1.2,0-2.1,0.9-2.1,2.1   s0.9,2.1,2.1,2.1c0.7,0,1.4-0.4,1.8-0.9l18.1,5.7l-13,12.1c-0.1,0.1-0.2,0.3-0.2,0.5s0.1,0.3,0.2,0.4L46,142.9l0.2,8.1   c-0.8,0.3-1.4,1-1.5,1.9c0,1.2,0.9,2.1,2.1,2.1c0.7,0,1.3-0.3,1.7-0.8l38.2,16.3l0,0c0.1,0,0.1,0,0.2,0l0,0l29.9-1.7h0.1h0.1h0.1   l28.8-12.2l0.1-0.1c0,0,0,0,0.1,0l0,0l0,0l20.3-20c0.2,0.1,0.4,0.1,0.6,0.1c1.1,0,2.1-0.9,2.1-2.1c0-0.5-0.2-0.9-0.5-1.3l10.4-23.3   c0.1,0,0.1,0,0.2,0c1.2,0,2.1-0.9,2.1-2.1C181.2,106.7,180.3,105.7,179.1,105.7z M27.8,127.3l12.5-11.6l5.2,25.1L27.8,127.3z    M72.4,137c0.3,0.8,1,1.4,1.9,1.4c0.7,0,1.3-0.3,1.7-0.8l25.7,13.4l-52.2-8.8L72.4,137z M48.7,152.9c0-0.1,0-0.1,0-0.2   c0-1-0.6-1.8-1.6-2.1l-0.2-7.2l34.3,23.4L48.7,152.9z M86.6,169.1l-37.7-25.7l55.1,9.3L86.6,169.1z M88.3,169.1l17-15.9l10.2,14.4   L88.3,169.1z M116.5,166.9l-10.1-14.2l31.8-2.6L116.5,166.9z M119.4,166.3l20.8-16l4.3,5.4L119.4,166.3z M145.5,155l-4.3-5.4   l22.3-12.3L145.5,155z M164.9,135.2l-23.3,12.9l13.6-29.5l10,14.6c-0.3,0.4-0.5,0.8-0.5,1.3C164.7,134.7,164.8,135,164.9,135.2z    M167.4,132.5c-0.2-0.1-0.4-0.1-0.6-0.1c-0.2,0-0.4,0.1-0.6,0.1L156,117.6l21.4-8.6c0.1,0.1,0.2,0.3,0.3,0.4L167.4,132.5z"/>
	<polygon points="0,94.1 16.6,94.1 16.6,88.3 6.9,88.3 6.9,83.8 16.6,83.8 16.6,77.9 6.9,77.9 6.9,73.5 16.6,73.5 16.6,67.7 0,67.7     "/>
	<polygon points="43.2,94.1 43.2,73.5 50.3,73.5 50.3,67.7 29.2,67.7 29.2,73.5 36.3,73.5 36.3,94.1  "/>
	<polygon points="87.6,67.7 80.7,67.7 80.7,77.9 70.8,77.9 70.8,67.7 63.9,67.7 63.9,94.1 70.8,94.1 70.8,83.3 80.7,83.3 80.7,94.1    87.6,94.1  "/>
	<polygon points="128.9,67.7 122,67.7 122,83.9 122,83.9 109.4,67.7 102.5,67.7 102.5,94.1 109.4,94.1 109.4,77.9 109.4,77.9    122,94.1 128.9,94.1  "/>
	<path d="M146.3,69.6c-1.4,1-5.8,4.2-5.8,11.2c0,7.2,5.3,14.3,14.8,14.3c7.4,0,14.4-5.3,14.4-14.6c0-8.1-7.1-13.6-14.6-13.6   C152.8,66.8,149.5,67.3,146.3,69.6z M162.5,80.5c0,4.4-3.3,7.9-7.5,7.9c-4.1,0-7.5-3.4-7.5-7.9c0-3.8,3.6-7,7.4-7   C159.1,73.5,162.5,76.8,162.5,80.5z"/>
	<path d="M195.1,78.9c-1.1-0.5-2.3-0.9-3.6-1.3c-2.6-0.7-3.6-1.5-3.6-2.7c0-1.3,1.4-2.2,2.9-2.2c1.6,0,3.3,0.7,4.6,1.8l2.7-5.3   c-2.5-1.4-5.7-2.2-8.3-2.2c-5.3,0-9.1,3.5-9.1,8.9c0,5.7,3.6,6.3,7.2,7.5c1.5,0.5,4.2,1.1,4.2,3c0,1.6-1.4,2.7-3.4,2.7   c-1.9,0-3.9-0.8-6.1-2.7l-2.9,5.5c2.7,1.9,6,3,9.3,3c2.7,0,5.3-0.7,7.5-2.5c1.8-1.4,2.7-3.9,2.7-7.1   C199.2,82,197.6,80.2,195.1,78.9z"/>
	<path d="M78.4,123.6c-0.6,0-1-0.1-1.4-0.3s-0.8-0.6-1.1-1.2c0-0.1-0.1-0.1-0.2-0.3c-0.5-0.7-1-1.1-1.4-1.1c-0.5,0-0.9,0.2-1.3,0.5   s-0.5,0.7-0.5,1.2c0,0.9,0.5,1.6,1.6,2.3s2.4,1,3.9,1c2.4,0,4.4-0.7,6-2.1c1.6-1.4,2.5-3,2.5-5c0-1.4-0.4-2.5-1.3-3.4   s-2-1.3-3.4-1.3c-0.2,0-0.3,0-0.5,0s-0.3,0-0.5,0c1.5-0.6,2.6-1.3,3.3-2c0.7-0.8,1.1-1.7,1.1-2.8c0-1.4-0.5-2.5-1.6-3.4   s-2.4-1.4-4-1.4c-1.4,0-2.6,0.3-3.7,1s-2,1.7-2.8,3.1l1.3,0.9c0.6-0.9,1.3-1.5,1.9-1.9s1.3-0.6,2.1-0.6c0.9,0,1.6,0.3,2.1,0.8   s0.8,1.3,0.8,2.1c0,1-0.4,1.9-1.3,2.7s-2.3,1.6-4.2,2.4l0.5,1.3c0.7-0.2,1.2-0.4,1.6-0.5s0.7-0.1,1.1-0.1c1.1,0,2,0.3,2.6,1   s1,1.6,1,2.7c0,1.2-0.4,2.2-1.2,3C80.6,123.2,79.6,123.6,78.4,123.6z"/>
	<path d="M100.1,106.9c0.6,0,1.2,0.2,2,0.5c0.8,0.4,1.3,0.5,1.6,0.5c0.4,0,0.6-0.1,0.9-0.4c0.2-0.3,0.4-0.6,0.4-1   c0-0.6-0.3-1.1-0.8-1.5c-0.6-0.4-1.3-0.5-2.3-0.5c-1.3,0-2.5,0.3-3.8,0.9c-1.3,0.6-2.4,1.4-3.3,2.4c-1.1,1.2-1.9,2.5-2.4,4   s-0.8,3.2-0.8,5.1c0,2.7,0.6,4.9,1.9,6.5s3,2.4,5.2,2.4c2.1,0,3.8-0.7,5.2-2c1.3-1.4,2-3.1,2-5.2c0-1.7-0.5-3.2-1.6-4.3   s-2.4-1.7-4.1-1.7c-0.8,0-1.6,0.2-2.5,0.5c-0.8,0.3-1.6,0.8-2.3,1.4c0.1-2.4,0.5-4.2,1.4-5.6C97.5,107.6,98.7,106.9,100.1,106.9z    M97,115.2c0.5-0.2,1-0.3,1.5-0.3c1.1,0,1.9,0.4,2.6,1.3c0.6,0.9,1,2,1,3.4c0,1.3-0.3,2.3-0.8,3c-0.6,0.7-1.3,1.1-2.3,1.1   c-1.2,0-2.1-0.6-2.8-1.7c-0.6-1.1-0.9-2.8-0.9-5.1c0-0.1,0-0.2,0-0.5c0-0.2,0-0.4,0-0.4C95.9,115.7,96.5,115.4,97,115.2z"/>
	<path d="M119.2,104.5c-2.3,0-4.1,1-5.6,3.1s-2.2,4.8-2.2,8c0,3.1,0.7,5.6,2,7.4c1.3,1.8,3.1,2.8,5.4,2.8c2.4,0,4.3-1,5.8-3   c1.4-2,2.2-4.7,2.2-8.1c0-3.2-0.7-5.7-2-7.5C123.4,105.4,121.6,104.5,119.2,104.5z M122.1,121.9c-0.6,1.3-1.5,2-2.8,2   s-2.4-0.8-3-2.4c-0.7-1.6-1-4-1-7.1c0-2.7,0.3-4.8,0.9-6.1c0.6-1.3,1.5-2,2.8-2s2.4,0.8,3,2.4c0.7,1.6,1,4,1,7.1   C123,118.6,122.7,120.6,122.1,121.9z"/>
</g>
</svg>